<?xml version="1.0" standalone="no"?>
<!DOCTYPE svg PUBLIC "-//W3C//DTD SVG 20010904//EN"
 "http://www.w3.org/TR/2001/REC-SVG-20010904/DTD/svg10.dtd">
<svg version="1.0" xmlns="http://www.w3.org/2000/svg"
 width="699.000000pt" height="357.000000pt" viewBox="0 0 699.000000 357.000000"
 preserveAspectRatio="xMidYMid meet">

<g transform="translate(0.000000,357.000000) scale(0.100000,-0.100000)"
fill="#000000" stroke="none">
<path d="M1633 3110 c-83 -20 -180 -102 -221 -190 -22 -46 -27 -69 -26 -140 0
-75 3 -92 31 -145 28 -55 77 -105 128 -132 46 -25 175 -27 175 -4 0 4 -12 14
-27 21 -89 45 -136 85 -159 134 -60 129 -4 259 128 295 47 13 80 12 150 -7 34
-9 42 -7 85 24 26 19 54 34 60 34 53 0 -54 88 -132 109 -45 12 -144 13 -192 1z"/>
<path d="M5310 2927 c-86 -46 -132 -158 -99 -239 57 -144 220 -178 330 -68 65
65 77 139 36 220 -48 97 -173 138 -267 87z m206 -91 c18 -26 18 -79 -1 -115
-20 -39 -94 -101 -119 -101 -61 1 -153 115 -141 174 10 57 25 63 141 63 95 0
107 -2 120 -21z"/>
<path d="M4898 2493 c7 -3 16 -2 19 1 4 3 -2 6 -13 5 -11 0 -14 -3 -6 -6z"/>
<path d="M5499 2472 c-20 -9 -45 -28 -55 -43 -10 -15 -23 -25 -29 -23 -15 6
-56 -56 -80 -119 -48 -126 35 -303 165 -350 74 -27 183 -23 243 10 44 24 87
64 87 80 0 7 5 13 11 13 6 0 8 7 5 15 -3 9 1 18 9 21 31 12 48 71 42 145 -7
81 -17 106 -29 69 -5 -17 -6 -13 -3 16 4 37 1 45 -34 83 -22 24 -45 40 -51 36
-6 -3 -9 -1 -8 5 2 6 -17 22 -42 36 -37 20 -58 24 -120 23 -46 -1 -89 -7 -111
-17z m158 -73 c46 -12 86 -46 110 -93 11 -22 14 -47 9 -100 -3 -39 -6 -80 -7
-91 -1 -11 -3 -14 -6 -7 -3 8 -17 1 -43 -22 -43 -39 -90 -52 -155 -43 -36 5
-43 4 -39 -8 4 -8 1 -15 -4 -15 -6 0 -9 9 -7 20 3 13 -6 27 -28 42 -51 35 -80
100 -72 157 4 23 0 40 -11 53 -10 10 -12 18 -6 18 7 0 12 -4 12 -10 0 -21 16
-8 42 34 24 37 34 44 83 56 30 7 55 17 55 22 0 6 6 7 13 4 6 -2 31 -10 54 -17z
m225 -194 c2 -19 0 -35 -4 -35 -4 0 -8 16 -8 35 0 19 2 35 4 35 2 0 6 -16 8
-35z m-452 -95 c0 -5 -5 -10 -11 -10 -5 0 -7 5 -4 10 3 6 8 10 11 10 2 0 4 -4
4 -10z m25 -59 c3 -5 1 -12 -5 -16 -5 -3 -10 1 -10 9 0 18 6 21 15 7z m325
-35 c0 -3 -4 -8 -10 -11 -5 -3 -10 -1 -10 4 0 6 5 11 10 11 6 0 10 -2 10 -4z
m-48 -58 c-8 -8 -9 -4 -5 13 4 13 8 18 11 10 2 -7 -1 -18 -6 -23z m-185 6 c-3
-3 -12 -4 -19 -1 -8 3 -5 6 6 6 11 1 17 -2 13 -5z"/>
<path d="M2272 2377 c-22 -23 -22 -25 -22 -486 l0 -464 -37 8 c-21 5 -60 8
-88 7 -27 -1 -169 -4 -315 -7 -301 -6 -318 -8 -354 -36 l-26 -20 0 -543 c0
-361 4 -553 11 -574 23 -66 26 -67 409 -70 363 -3 412 1 447 40 17 19 18 48
18 378 0 197 3 361 6 364 3 3 387 6 853 7 l847 1 -3 26 -3 27 -847 3 -848 2 0
655 0 655 1010 0 1010 0 0 -300 0 -300 35 0 35 0 0 303 c0 258 -2 306 -16 325
l-15 22 -1043 0 -1043 0 -21 -23z m-342 -1072 c20 -24 2 -35 -61 -35 -51 0
-59 3 -59 18 0 28 9 32 60 32 29 0 52 -6 60 -15z m131 -318 c33 -25 39 -55 39
-201 0 -161 -7 -190 -53 -206 -33 -11 -265 -14 -316 -4 -52 11 -61 41 -61 211
0 130 2 152 20 181 l20 32 167 0 c116 -1 173 -4 184 -13z"/>
<path d="M1850 895 c7 -8 16 -30 20 -48 6 -26 9 -29 15 -14 10 23 -13 77 -32
77 -13 0 -13 -3 -3 -15z"/>
<path d="M1771 854 c0 -17 6 -37 14 -44 16 -13 21 0 6 16 -5 5 -11 20 -14 34
-4 22 -4 21 -6 -6z"/>
<path d="M1969 860 c-3 -19 -11 -26 -34 -29 l-30 -4 30 -6 c22 -5 31 -13 34
-31 l4 -25 6 25 c5 17 16 27 36 31 l30 6 -30 4 c-21 3 -31 11 -36 29 l-6 25
-4 -25z"/>
<path d="M1830 780 c0 -11 40 -50 51 -50 4 0 10 -12 12 -27 l4 -28 2 26 c0 17
-10 37 -29 58 -32 33 -40 37 -40 21z"/>
<path d="M1751 705 c-1 -21 15 -53 22 -45 2 3 -2 19 -9 35 -10 23 -13 25 -13
10z"/>
<path d="M719 1865 c-50 -14 -129 -60 -129 -75 0 -6 -7 -10 -15 -10 -8 0 -15
-7 -15 -16 0 -8 -4 -13 -9 -10 -12 8 -34 -21 -26 -34 3 -5 2 -10 -4 -10 -5 0
-22 -25 -37 -55 -32 -67 -42 -168 -24 -245 15 -61 34 -103 43 -93 4 3 7 -1 7
-11 0 -25 41 -76 62 -76 10 0 23 -11 28 -24 13 -34 89 -76 168 -93 83 -17 196
-3 224 29 10 11 21 17 25 15 4 -3 19 -1 32 4 20 8 22 11 10 26 -8 10 -9 14 -2
10 13 -8 63 12 63 26 0 5 11 18 25 29 53 41 101 201 89 294 -4 33 -10 51 -17
47 -6 -3 -7 -1 -3 6 4 6 3 17 -2 24 -5 7 -13 27 -17 45 -4 18 -15 38 -26 45
-10 6 -19 18 -19 25 0 7 -8 16 -17 19 -10 4 -33 20 -50 37 -51 46 -74 58 -146
75 -60 14 -158 12 -218 -4z m336 -74 c-3 -6 -11 -11 -16 -11 -5 0 -4 6 3 14
14 16 24 13 13 -3z m-425 -43 c0 -5 -7 -3 -15 6 -8 8 -15 18 -15 22 0 3 7 1
15 -6 8 -7 15 -17 15 -22z m370 -2 c0 -3 -4 -8 -10 -11 -5 -3 -10 -1 -10 4 0
6 5 11 10 11 6 0 10 -2 10 -4z m43 -177 c-1 -73 -6 -136 -12 -142 -6 -6 -6
-16 2 -28 8 -13 8 -24 -1 -44 -11 -23 -17 -26 -55 -23 -39 3 -42 5 -45 36 l-3
32 -124 0 -124 0 -3 -32 c-3 -31 -6 -33 -46 -36 -40 -3 -43 -2 -48 27 -5 25
-12 30 -38 33 l-31 3 -3 77 c-4 118 29 166 109 155 l39 -5 0 39 0 39 193 0
192 0 -2 -131z m-566 9 c-3 -8 -6 -5 -6 6 -1 11 2 17 5 13 3 -3 4 -12 1 -19z
m650 -225 c-3 -10 -5 -2 -5 17 0 19 2 27 5 18 2 -10 2 -26 0 -35z m-254 20
c-7 -2 -19 -2 -25 0 -7 3 -2 5 12 5 14 0 19 -2 13 -5z m297 -37 c0 -2 -8 -10
-17 -17 -16 -13 -17 -12 -4 4 13 16 21 21 21 13z m-532 -33 c-10 -2 -26 -2
-35 0 -10 3 -2 5 17 5 19 0 27 -2 18 -5z m245 -180 c-7 -2 -21 -2 -30 0 -10 3
-4 5 12 5 17 0 24 -2 18 -5z"/>
<path d="M582 1565 c-11 -24 -10 -25 18 -25 26 0 29 3 28 25 -2 16 -8 25 -19
25 -8 0 -21 -11 -27 -25z"/>
<path d="M4057 1719 c-22 -17 -22 -20 -25 -416 -4 -547 6 -899 25 -918 12 -13
144 -15 954 -15 l939 0 22 22 21 21 -6 633 c-4 431 -9 639 -17 653 -6 11 -21
23 -33 25 -12 3 -435 7 -940 9 -866 4 -920 3 -940 -14z m1222 -373 c47 -25 51
-48 51 -299 0 -245 -2 -257 -50 -294 -17 -14 -497 -19 -515 -5 -6 4 -21 20
-33 36 -21 28 -22 37 -22 256 0 245 6 282 49 305 38 21 479 21 520 1z"/>
<path d="M5104 1309 c-48 -14 -72 -47 -81 -114 -7 -52 -11 -60 -31 -63 -18 -3
-22 -10 -22 -38 0 -30 3 -34 25 -34 l25 0 0 -135 0 -135 55 0 54 0 3 133 3
132 46 3 c39 2 48 7 53 25 11 42 7 46 -46 49 -52 3 -53 4 -56 36 -5 46 12 62
64 62 l44 0 0 45 0 45 -52 -1 c-29 0 -67 -5 -84 -10z"/>
<path d="M1143 960 c-122 -5 -133 -7 -152 -28 -30 -35 -33 -77 -29 -404 l3
-296 24 -26 c24 -26 25 -26 191 -26 163 0 168 1 194 25 l26 24 0 340 0 340
-27 26 c-15 14 -38 25 -50 25 -12 0 -27 1 -35 3 -7 2 -72 1 -145 -3z m55 -77
c-10 -2 -26 -2 -35 0 -10 3 -2 5 17 5 19 0 27 -2 18 -5z m94 -195 c13 -10 18
-39 23 -123 3 -60 2 -116 -3 -123 -12 -18 -237 -21 -254 -4 -20 20 -11 233 10
250 10 8 50 12 112 12 62 0 102 -4 112 -12z"/>
<path d="M1139 640 c-25 -15 -43 -65 -30 -87 9 -15 10 -14 11 13 0 18 8 42 18
54 43 53 126 -17 88 -75 -9 -14 -12 -25 -7 -25 13 0 31 33 31 58 0 11 -9 31
-21 46 -21 27 -59 34 -90 16z"/>
<path d="M1155 578 c-2 -7 -6 -31 -9 -53 -2 -22 -2 -32 0 -22 3 9 11 17 17 17
7 0 12 15 12 35 0 34 -12 48 -20 23z"/>
<path d="M3057 604 c-3 -16 -9 -56 -12 -89 -9 -86 -12 -92 -62 -126 -25 -18
-41 -35 -36 -40 13 -13 762 -14 775 -1 6 6 1 16 -17 28 -67 46 -71 54 -78 148
-3 49 -8 90 -10 92 -2 2 -128 7 -279 11 l-276 6 -5 -29z"/>
<path d="M3929 328 c-40 -8 -52 -27 -35 -53 13 -20 25 -20 1091 -23 788 -1
1081 1 1091 9 18 15 18 43 0 58 -15 12 -2087 22 -2147 9z m759 -40 c-4 -10
-86 -14 -356 -16 -309 -2 -352 0 -352 13 0 13 45 15 356 15 280 0 355 -3 352
-12z m260 0 c-6 -16 -32 -22 -64 -14 -37 10 -19 26 27 26 28 0 39 -4 37 -12z
m82 -3 c0 -5 -11 -11 -25 -11 -14 -1 -25 4 -25 11 0 7 11 12 25 11 14 0 25 -5
25 -11z"/>
</g>
</svg>
